<svg width="85" height="25" viewBox="0 0 85 25" fill="none" xmlns="http://www.w3.org/2000/svg">
<g clip-path="url(#clip0)">
<path d="M81.3731 25H2.95563C1.32625 25 0 23.67 0 22.0419V2.95375C0 1.325 1.32625 0 2.95563 0H81.3731C83.0019 0 84.375 1.325 84.375 2.95375V22.0419C84.375 23.67 83.0019 25 81.3731 25Z" fill="#A6A6A6"/>
<path d="M83.7699 22.0425C83.7699 23.365 82.6987 24.4362 81.3737 24.4362H2.95553C1.63115 24.4362 0.556152 23.365 0.556152 22.0425V2.95309C0.556152 1.63121 1.63115 0.556213 2.95553 0.556213H81.373C82.6987 0.556213 83.7693 1.63121 83.7693 2.95309L83.7699 22.0425Z" fill="black"/>
<path d="M18.8299 12.3651C18.8118 10.3507 20.4793 9.37072 20.5556 9.32509C19.6112 7.94822 18.1474 7.76009 17.6331 7.74509C16.4037 7.61572 15.2112 8.48072 14.5849 8.48072C13.9462 8.48072 12.9818 7.75759 11.9424 7.77884C10.6049 7.79947 9.35368 8.57384 8.66743 9.77634C7.25118 12.2282 8.30743 15.8313 9.66431 17.8132C10.3431 18.7838 11.1362 19.8676 12.1743 19.8295C13.1899 19.7876 13.5693 19.182 14.7949 19.182C16.0093 19.182 16.3656 19.8295 17.4243 19.8051C18.5143 19.7876 19.2006 18.8301 19.8556 17.8507C20.6399 16.7382 20.9549 15.6426 20.9674 15.5863C20.9418 15.5776 18.8506 14.7795 18.8299 12.3651Z" fill="white"/>
<path d="M16.8299 6.44131C17.3762 5.75818 17.7499 4.82881 17.6462 3.88568C16.8555 3.92068 15.8668 4.43256 15.2974 5.10068C14.7937 5.68943 14.3437 6.65443 14.4599 7.56193C15.348 7.62818 16.2599 7.11381 16.8299 6.44131Z" fill="white"/>
<path d="M33.5282 19.69H32.1088L31.3313 17.2469H28.6288L27.8882 19.69H26.5063L29.1838 11.3725H30.8376L33.5282 19.69ZM31.097 16.2219L30.3938 14.05C30.3195 13.8281 30.1801 13.3056 29.9745 12.4831H29.9495C29.8676 12.8369 29.7357 13.3594 29.5545 14.05L28.8638 16.2219H31.097V16.2219Z" fill="white"/>
<path d="M40.4138 16.6175C40.4138 17.6375 40.1382 18.4437 39.5869 19.0356C39.0932 19.5625 38.4801 19.8256 37.7482 19.8256C36.9582 19.8256 36.3907 19.5418 36.0451 18.9743H36.0201V22.1337H34.6876V15.6668C34.6876 15.0256 34.6707 14.3675 34.6382 13.6925H35.8101L35.8844 14.6431H35.9094C36.3538 13.9268 37.0282 13.5693 37.9332 13.5693C38.6407 13.5693 39.2313 13.8487 39.7038 14.4081C40.1776 14.9681 40.4138 15.7043 40.4138 16.6175ZM39.0563 16.6662C39.0563 16.0825 38.9251 15.6012 38.6613 15.2225C38.3732 14.8275 37.9863 14.63 37.5013 14.63C37.1726 14.63 36.8738 14.74 36.6069 14.9568C36.3394 15.1756 36.1644 15.4612 36.0826 15.815C36.0413 15.98 36.0207 16.115 36.0207 16.2212V17.2212C36.0207 17.6575 36.1544 18.0256 36.4219 18.3262C36.6894 18.6268 37.0369 18.7768 37.4644 18.7768C37.9663 18.7768 38.3569 18.5831 38.6363 18.1968C38.9163 17.81 39.0563 17.3 39.0563 16.6662Z" fill="white"/>
<path d="M47.3119 16.6175C47.3119 17.6375 47.0362 18.4437 46.4844 19.0356C45.9912 19.5625 45.3781 19.8256 44.6462 19.8256C43.8562 19.8256 43.2887 19.5418 42.9437 18.9743H42.9187V22.1337H41.5862V15.6668C41.5862 15.0256 41.5694 14.3675 41.5369 13.6925H42.7087L42.7831 14.6431H42.8081C43.2519 13.9268 43.9262 13.5693 44.8319 13.5693C45.5387 13.5693 46.1294 13.8487 46.6031 14.4081C47.075 14.9681 47.3119 15.7043 47.3119 16.6175ZM45.9544 16.6662C45.9544 16.0825 45.8225 15.6012 45.5587 15.2225C45.2706 14.8275 44.885 14.63 44.3994 14.63C44.07 14.63 43.7719 14.74 43.5044 14.9568C43.2369 15.1756 43.0625 15.4612 42.9806 15.815C42.94 15.98 42.9187 16.115 42.9187 16.2212V17.2212C42.9187 17.6575 43.0525 18.0256 43.3187 18.3262C43.5862 18.6262 43.9337 18.7768 44.3625 18.7768C44.8644 18.7768 45.255 18.5831 45.5344 18.1968C45.8144 17.81 45.9544 17.3 45.9544 16.6662Z" fill="white"/>
<path d="M55.0245 17.3575C55.0245 18.065 54.7789 18.6406 54.2857 19.085C53.7439 19.5706 52.9895 19.8131 52.0201 19.8131C51.1251 19.8131 50.4076 19.6406 49.8645 19.295L50.1733 18.1844C50.7583 18.5381 51.4001 18.7156 52.0995 18.7156C52.6014 18.7156 52.992 18.6019 53.2726 18.3756C53.552 18.1494 53.6914 17.8456 53.6914 17.4669C53.6914 17.1294 53.5764 16.845 53.3457 16.6144C53.1164 16.3837 52.7332 16.1694 52.1982 15.9712C50.742 15.4281 50.0145 14.6325 50.0145 13.5862C50.0145 12.9025 50.2695 12.3419 50.7801 11.9056C51.2889 11.4687 51.9676 11.2506 52.8164 11.2506C53.5732 11.2506 54.202 11.3825 54.7039 11.6456L54.3707 12.7319C53.902 12.4769 53.372 12.3494 52.7789 12.3494C52.3101 12.3494 51.9439 12.465 51.6814 12.695C51.4595 12.9006 51.3482 13.1512 51.3482 13.4481C51.3482 13.7769 51.4751 14.0487 51.7301 14.2625C51.952 14.46 52.3551 14.6737 52.9401 14.9044C53.6557 15.1925 54.1814 15.5294 54.5195 15.9156C54.8564 16.3006 55.0245 16.7825 55.0245 17.3575Z" fill="white"/>
<path d="M59.4301 14.6925H57.9613V17.6043C57.9613 18.345 58.2201 18.715 58.7388 18.715C58.977 18.715 59.1745 18.6943 59.3307 18.6531L59.3676 19.665C59.1051 19.7631 58.7595 19.8125 58.3313 19.8125C57.8051 19.8125 57.3938 19.6518 57.097 19.3312C56.8013 19.01 56.6526 18.4712 56.6526 17.7143V14.6912H55.7776V13.6912H56.6526V12.5931L57.9613 12.1981V13.6912H59.4301V14.6925Z" fill="white"/>
<path d="M66.057 16.6419C66.057 17.5638 65.7932 18.3206 65.267 18.9125C64.7151 19.5219 63.9826 19.8256 63.0695 19.8256C62.1895 19.8256 61.4889 19.5338 60.9664 18.95C60.4439 18.3663 60.1826 17.6294 60.1826 16.7413C60.1826 15.8119 60.4514 15.0506 60.9907 14.4588C61.5289 13.8663 62.2551 13.57 63.1682 13.57C64.0482 13.57 64.7564 13.8619 65.2907 14.4463C65.802 15.0131 66.057 15.745 66.057 16.6419ZM64.6745 16.685C64.6745 16.1319 64.5564 15.6575 64.317 15.2619C64.0376 14.7831 63.6382 14.5444 63.1207 14.5444C62.5851 14.5444 62.1782 14.7838 61.8989 15.2619C61.6595 15.6581 61.5414 16.14 61.5414 16.71C61.5414 17.2631 61.6595 17.7375 61.8989 18.1325C62.187 18.6113 62.5895 18.85 63.1089 18.85C63.6176 18.85 64.017 18.6063 64.3051 18.12C64.5507 17.7169 64.6745 17.2375 64.6745 16.685Z" fill="white"/>
<path d="M70.3882 14.8643C70.2563 14.84 70.1157 14.8275 69.9682 14.8275C69.4994 14.8275 69.1369 15.0043 68.8819 15.3587C68.6601 15.6712 68.5488 16.0662 68.5488 16.5431V19.69H67.2169L67.2294 15.5812C67.2294 14.89 67.2126 14.2606 67.1794 13.6931H68.3401L68.3888 14.8406H68.4257C68.5663 14.4462 68.7882 14.1287 69.0919 13.8906C69.3888 13.6762 69.7094 13.5693 70.0551 13.5693C70.1782 13.5693 70.2894 13.5781 70.3882 13.5937V14.8643Z" fill="white"/>
<path d="M76.3476 16.4075C76.3476 16.6463 76.3319 16.8475 76.2988 17.0119H72.3013C72.317 17.6044 72.5101 18.0575 72.8813 18.37C73.2182 18.6494 73.6538 18.7894 74.1888 18.7894C74.7807 18.7894 75.3207 18.695 75.8063 18.5056L76.0151 19.4306C75.4476 19.6781 74.7776 19.8013 74.0044 19.8013C73.0744 19.8013 72.3445 19.5275 71.8132 18.9806C71.2832 18.4338 71.0176 17.6994 71.0176 16.7781C71.0176 15.8738 71.2645 15.1206 71.7588 14.52C72.2763 13.8788 72.9757 13.5581 73.8557 13.5581C74.7201 13.5581 75.3744 13.8788 75.8188 14.52C76.1707 15.0294 76.3476 15.6594 76.3476 16.4075ZM75.0769 16.0619C75.0857 15.6669 74.9988 15.3256 74.8182 15.0375C74.5876 14.6669 74.2332 14.4819 73.7563 14.4819C73.3207 14.4819 72.9663 14.6625 72.6957 15.025C72.4738 15.3131 72.342 15.6588 72.3013 16.0613H75.0769V16.0619Z" fill="white"/>
<path d="M30.6564 6.25559C30.6564 6.99122 30.4357 7.54497 29.9951 7.91684C29.587 8.25997 29.007 8.43184 28.2557 8.43184C27.8832 8.43184 27.5645 8.41559 27.2976 8.38309V4.36372C27.6457 4.30747 28.0207 4.27872 28.4257 4.27872C29.1414 4.27872 29.6807 4.43434 30.0445 4.74559C30.452 5.09747 30.6564 5.60059 30.6564 6.25559ZM29.9657 6.27372C29.9657 5.79684 29.8395 5.43122 29.587 5.17622C29.3345 4.92184 28.9657 4.79434 28.4801 4.79434C28.2739 4.79434 28.0982 4.80809 27.9526 4.83684V7.89247C28.0332 7.90497 28.1807 7.91059 28.3951 7.91059C28.8964 7.91059 29.2832 7.77122 29.5557 7.49247C29.8282 7.21372 29.9657 6.80747 29.9657 6.27372Z" fill="white"/>
<path d="M34.3182 6.89812C34.3182 7.35125 34.1889 7.7225 33.9301 8.01375C33.6589 8.31312 33.2995 8.4625 32.8507 8.4625C32.4182 8.4625 32.0739 8.31937 31.817 8.03187C31.5607 7.745 31.4326 7.38312 31.4326 6.94687C31.4326 6.49062 31.5645 6.11625 31.8295 5.82562C32.0945 5.535 32.4507 5.38937 32.8995 5.38937C33.332 5.38937 33.6795 5.5325 33.9426 5.81937C34.1926 6.09812 34.3182 6.45812 34.3182 6.89812ZM33.6389 6.91937C33.6389 6.6475 33.5801 6.41437 33.4632 6.22C33.3257 5.985 33.1301 5.8675 32.8757 5.8675C32.6126 5.8675 32.4126 5.985 32.2751 6.22C32.1576 6.41437 32.0995 6.65125 32.0995 6.93125C32.0995 7.20312 32.1582 7.43625 32.2751 7.63062C32.417 7.86562 32.6145 7.98312 32.8695 7.98312C33.1195 7.98312 33.3157 7.86375 33.457 7.62437C33.5782 7.42625 33.6389 7.19125 33.6389 6.91937Z" fill="white"/>
<path d="M39.2282 5.44934L38.3063 8.39559H37.7063L37.3245 7.11622C37.2276 6.79684 37.1488 6.47934 37.0876 6.16434H37.0757C37.0188 6.48809 36.9401 6.80497 36.8388 7.11622L36.4332 8.39559H35.8263L34.9595 5.44934H35.6326L35.9657 6.84997C36.0463 7.18122 36.1126 7.49684 36.1657 7.79559H36.1776C36.2263 7.54934 36.307 7.23559 36.4207 6.85622L36.8388 5.44997H37.3726L37.7732 6.82622C37.8701 7.16184 37.9488 7.48497 38.0095 7.79622H38.0276C38.072 7.49309 38.1388 7.16997 38.2276 6.82622L38.5851 5.44997H39.2282V5.44934Z" fill="white"/>
<path d="M42.6238 8.39557H41.9688V6.70808C41.9688 6.18808 41.7713 5.92808 41.375 5.92808C41.1806 5.92808 41.0238 5.99933 40.9019 6.14245C40.7813 6.28558 40.72 6.45433 40.72 6.64745V8.39495H40.065V6.2912C40.065 6.03245 40.0569 5.75183 40.0413 5.44808H40.6169L40.6475 5.9087H40.6656C40.7419 5.76558 40.8556 5.64745 41.005 5.55308C41.1825 5.44308 41.3813 5.38745 41.5988 5.38745C41.8738 5.38745 42.1025 5.4762 42.2844 5.65433C42.5106 5.87245 42.6238 6.19808 42.6238 6.63058V8.39557V8.39557Z" fill="white"/>
<path d="M44.43 8.3956H43.7756V4.09747H44.43V8.3956Z" fill="white"/>
<path d="M48.2863 6.89812C48.2863 7.35125 48.1569 7.7225 47.8981 8.01375C47.6269 8.31312 47.2669 8.4625 46.8188 8.4625C46.3856 8.4625 46.0413 8.31937 45.785 8.03187C45.5288 7.745 45.4006 7.38312 45.4006 6.94687C45.4006 6.49062 45.5325 6.11625 45.7975 5.82562C46.0625 5.535 46.4188 5.38937 46.8669 5.38937C47.3 5.38937 47.6469 5.5325 47.9106 5.81937C48.1606 6.09812 48.2863 6.45812 48.2863 6.89812ZM47.6063 6.91937C47.6063 6.6475 47.5475 6.41437 47.4306 6.22C47.2938 5.985 47.0975 5.8675 46.8438 5.8675C46.58 5.8675 46.38 5.985 46.2431 6.22C46.1256 6.41437 46.0675 6.65125 46.0675 6.93125C46.0675 7.20312 46.1263 7.43625 46.2431 7.63062C46.385 7.86562 46.5825 7.98312 46.8375 7.98312C47.0875 7.98312 47.2831 7.86375 47.4244 7.62437C47.5463 7.42625 47.6063 7.19125 47.6063 6.91937Z" fill="white"/>
<path d="M51.4564 8.39562H50.8682L50.8195 8.05625H50.8014C50.6001 8.32687 50.3132 8.4625 49.9407 8.4625C49.6626 8.4625 49.4376 8.37312 49.2682 8.19562C49.1145 8.03437 49.0376 7.83375 49.0376 7.59562C49.0376 7.23562 49.1876 6.96125 49.4895 6.77125C49.7907 6.58125 50.2145 6.48812 50.7601 6.4925V6.4375C50.7601 6.04937 50.5564 5.85562 50.1482 5.85562C49.8576 5.85562 49.6014 5.92875 49.3801 6.07375L49.247 5.64375C49.5207 5.47437 49.8589 5.38937 50.2576 5.38937C51.0276 5.38937 51.4139 5.79562 51.4139 6.60812V7.69312C51.4139 7.9875 51.4282 8.22187 51.4564 8.39562ZM50.7764 7.38312V6.92875C50.0538 6.91625 49.6926 7.11437 49.6926 7.5225C49.6926 7.67625 49.7338 7.79125 49.8182 7.86812C49.9026 7.945 50.0101 7.98312 50.1382 7.98312C50.282 7.98312 50.4164 7.9375 50.5389 7.84687C50.662 7.75562 50.7376 7.64 50.7657 7.49812C50.7726 7.46625 50.7764 7.4275 50.7764 7.38312Z" fill="white"/>
<path d="M55.1782 8.3956H54.597L54.5663 7.92247H54.5482C54.3626 8.28247 54.0463 8.46247 53.602 8.46247C53.247 8.46247 52.9513 8.3231 52.717 8.04435C52.4826 7.7656 52.3657 7.40372 52.3657 6.95935C52.3657 6.48247 52.4926 6.09622 52.7476 5.80122C52.9945 5.52622 53.297 5.38872 53.657 5.38872C54.0526 5.38872 54.3295 5.52185 54.487 5.78872H54.4995V4.09747H55.1551V7.60185C55.1551 7.88872 55.1626 8.1531 55.1782 8.3956ZM54.4995 7.1531V6.66185C54.4995 6.57685 54.4932 6.5081 54.4813 6.4556C54.4445 6.2981 54.3651 6.1656 54.2445 6.05872C54.1226 5.95185 53.9757 5.8981 53.8063 5.8981C53.562 5.8981 53.3707 5.99497 53.2301 6.18935C53.0907 6.38372 53.0201 6.63185 53.0201 6.93497C53.0201 7.22622 53.087 7.46247 53.2213 7.64435C53.3632 7.8381 53.5545 7.93497 53.7938 7.93497C54.0088 7.93497 54.1807 7.85435 54.3113 7.69247C54.4376 7.5431 54.4995 7.3631 54.4995 7.1531Z" fill="white"/>
<path d="M60.7802 6.89812C60.7802 7.35125 60.6508 7.7225 60.392 8.01375C60.1208 8.31312 59.762 8.4625 59.3127 8.4625C58.8808 8.4625 58.5364 8.31937 58.2789 8.03187C58.0227 7.745 57.8945 7.38312 57.8945 6.94687C57.8945 6.49062 58.0264 6.11625 58.2914 5.82562C58.5564 5.535 58.9127 5.38937 59.362 5.38937C59.7939 5.38937 60.142 5.5325 60.4045 5.81937C60.6545 6.09812 60.7802 6.45812 60.7802 6.89812ZM60.1014 6.91937C60.1014 6.6475 60.0427 6.41437 59.9258 6.22C59.7877 5.985 59.5927 5.8675 59.3377 5.8675C59.0752 5.8675 58.8752 5.985 58.737 6.22C58.6195 6.41437 58.5614 6.65125 58.5614 6.93125C58.5614 7.20312 58.6202 7.43625 58.737 7.63062C58.8789 7.86562 59.0764 7.98312 59.3314 7.98312C59.5814 7.98312 59.7783 7.86375 59.9195 7.62437C60.0402 7.42625 60.1014 7.19125 60.1014 6.91937Z" fill="white"/>
<path d="M64.3021 8.39557H63.6477V6.70808C63.6477 6.18808 63.4502 5.92808 63.0533 5.92808C62.859 5.92808 62.7021 5.99933 62.5808 6.14245C62.4596 6.28558 62.399 6.45433 62.399 6.64745V8.39495H61.7433V6.2912C61.7433 6.03245 61.7358 5.75183 61.7202 5.44808H62.2952L62.3258 5.9087H62.344C62.4208 5.76558 62.5346 5.64745 62.6833 5.55308C62.8615 5.44308 63.0596 5.38745 63.2777 5.38745C63.5521 5.38745 63.7808 5.4762 63.9627 5.65433C64.1896 5.87245 64.3021 6.19808 64.3021 6.63058V8.39557V8.39557Z" fill="white"/>
<path d="M68.7102 5.94001H67.9889V7.37126C67.9889 7.73501 68.117 7.91689 68.3708 7.91689C68.4883 7.91689 68.5858 7.90689 68.6627 7.88626L68.6795 8.38314C68.5502 8.43189 68.3802 8.45626 68.1708 8.45626C67.912 8.45626 67.7108 8.37751 67.5651 8.22001C67.4189 8.06251 67.3464 7.79751 67.3464 7.42564V5.94001H66.9158V5.44939H67.3464V4.90939L67.9883 4.71564V5.44876H68.7095V5.94001H68.7102Z" fill="white"/>
<path d="M72.1777 8.3956H71.522V6.7206C71.522 6.19248 71.3245 5.9281 70.9289 5.9281C70.6252 5.9281 70.4177 6.08123 70.3039 6.38748C70.2845 6.45185 70.2733 6.5306 70.2733 6.6231V8.39498H69.6189V4.09747H70.2733V5.8731H70.2858C70.492 5.54997 70.7877 5.38872 71.1708 5.38872C71.442 5.38872 71.6664 5.47747 71.8445 5.6556C72.0664 5.87747 72.1777 6.20748 72.1777 6.64373V8.3956V8.3956Z" fill="white"/>
<path d="M75.7544 6.78307C75.7544 6.90057 75.7456 6.99932 75.73 7.07995H73.7656C73.7744 7.3712 73.8681 7.59307 74.05 7.74682C74.2163 7.88432 74.4306 7.95307 74.6931 7.95307C74.9838 7.95307 75.2488 7.90682 75.4875 7.8137L75.59 8.2687C75.3106 8.38995 74.9819 8.45057 74.6013 8.45057C74.145 8.45057 73.7856 8.3162 73.5256 8.04745C73.2644 7.7787 73.135 7.41807 73.135 6.96557C73.135 6.5212 73.2556 6.1512 73.4988 5.8562C73.7525 5.5412 74.0956 5.3837 74.5288 5.3837C74.9525 5.3837 75.2744 5.5412 75.4919 5.8562C75.6675 6.1062 75.7544 6.41557 75.7544 6.78307ZM75.1294 6.6137C75.1344 6.41932 75.0913 6.25182 75.0025 6.11057C74.8888 5.9287 74.7156 5.83745 74.4813 5.83745C74.2675 5.83745 74.0931 5.9262 73.96 6.10432C73.8513 6.2462 73.7869 6.41557 73.7656 6.6137H75.1294Z" fill="white"/>
</g>
<defs>
<clipPath id="clip0">
<rect width="84.375" height="25" fill="white"/>
</clipPath>
</defs>
</svg>
