<svg width="50" height="50" viewBox="0 0 50 50" fill="none" xmlns="http://www.w3.org/2000/svg">
<g clip-path="url(#clip0)">
<path d="M44.1657 17.9046C44.1657 17.8421 44.1657 17.7796 44.1657 17.7171C44.1695 9.89177 37.8288 3.54515 30.0035 3.54151C25.2439 3.53921 20.8011 5.92688 18.1766 9.8975C12.931 8.1465 7.2591 10.9794 5.5081 16.225C5.16815 17.2436 4.99416 18.3102 4.99291 19.384C4.99291 19.4548 4.99291 19.5265 4.99291 19.5982C1.42871 20.5241 -0.710061 24.164 0.215813 27.7281C0.978432 30.6639 3.62655 32.715 6.65984 32.7194H21.6072C22.0675 32.7194 22.4406 32.3462 22.4406 31.8859C22.4406 31.4257 22.0675 31.0525 21.6072 31.0525H6.65984C3.89806 31.036 1.6725 28.7839 1.68886 26.0221C1.70355 23.5461 3.528 21.4537 5.9789 21.1017C6.4198 21.0425 6.73642 20.6473 6.69818 20.2041C6.67568 19.9357 6.65984 19.6599 6.65984 19.384C6.66578 14.7749 10.407 11.0433 15.016 11.0492C16.109 11.0506 17.1911 11.2668 18.2008 11.6853C18.5835 11.8443 19.0249 11.698 19.2368 11.3419C22.7525 5.3993 30.4198 3.4319 36.3624 6.94745C40.1687 9.19926 42.5021 13.2945 42.4988 17.7171C42.4988 17.9929 42.4913 18.2605 42.4688 18.5288C42.4301 18.9773 42.7544 19.3753 43.2014 19.4282C46.3992 19.8238 48.6707 22.7369 48.275 25.9347C47.914 28.8522 45.4386 31.0455 42.4988 31.0525C42.2481 31.0528 41.9976 31.0381 41.7487 31.0083C41.6291 30.9936 41.5076 31.0088 41.3953 31.0525H28.2999C27.8396 31.0525 27.4664 31.4257 27.4664 31.8859C27.4664 32.3462 27.8396 32.7194 28.2999 32.7194H41.6653C41.729 32.7192 41.7923 32.7105 41.8537 32.6936C42.0645 32.7111 42.2804 32.7194 42.4988 32.7194C46.6416 32.7195 50.0001 29.3612 50.0001 25.2183C50.0002 21.7177 47.5788 18.6824 44.1657 17.9046Z" fill="white"/>
<path d="M31.4786 37.9644L25.8294 43.6137V20.2175C25.8294 19.7572 25.4562 19.384 24.996 19.384C24.5357 19.384 24.1625 19.7572 24.1625 20.2175V43.6137L18.5133 37.9644C18.1822 37.6446 17.6546 37.6538 17.3348 37.9849C17.0228 38.3078 17.0228 38.8199 17.3348 39.143L24.4067 46.2149C24.7322 46.5403 25.2598 46.5403 25.5852 46.2149L32.6572 39.143C32.977 38.8119 32.9678 38.2843 32.6367 37.9644C32.3138 37.6524 31.8016 37.6524 31.4786 37.9644Z" fill="white"/>
</g>
<defs>
<clipPath id="clip0">
<rect width="50" height="50" fill="white"/>
</clipPath>
</defs>
</svg>
