<svg width="50" height="50" viewBox="0 0 50 50" fill="none" xmlns="http://www.w3.org/2000/svg">
<g clip-path="url(#clip0)">
<path d="M26.9681 32.6004C27.4088 32.6004 27.766 32.2432 27.766 31.8026C27.766 31.3619 27.4088 31.0047 26.9681 31.0047H1.71415C1.65106 31.0047 1.59574 30.9493 1.59574 30.8862V1.71426C1.59574 1.65117 1.65117 1.59574 1.71415 1.59574H40.2006C40.2637 1.59574 40.319 1.65117 40.319 1.71426V15.7569C40.319 16.1976 40.6762 16.5548 41.1169 16.5548C41.5577 16.5548 41.9148 16.1976 41.9148 15.7569V1.71426C41.9149 0.769043 41.1459 0 40.2007 0H1.71415C0.769043 0 0 0.769043 0 1.71426V30.8862C0 31.8314 0.769043 32.6004 1.71415 32.6004H16.0964V37.419H9.96128C9.52053 37.419 9.1634 37.7763 9.1634 38.2169C9.1634 38.6576 9.52053 39.0148 9.96128 39.0148H26.9681C27.4088 39.0148 27.766 38.6576 27.766 38.2169C27.766 37.7763 27.4088 37.419 26.9681 37.419H25.8184V32.6004H26.9681ZM24.2227 37.419H17.6921V32.6004H24.2227V37.419Z" fill="white"/>
<path d="M26.968 25.5972H3.98928C3.54853 25.5972 3.19141 25.9544 3.19141 26.395C3.19141 26.8357 3.54853 27.1929 3.98928 27.1929H26.968C27.4087 27.1929 27.7659 26.8357 27.7659 26.395C27.7659 25.9544 27.4087 25.5972 26.968 25.5972Z" fill="white"/>
<path d="M48.286 18.1504H31.076C30.1308 18.1504 29.3618 18.9194 29.3618 19.8646V48.2858C29.3618 49.231 30.1309 50 31.076 50H48.2859C49.2311 50 50 49.231 50 48.2858V19.8646C50.0001 18.9193 49.2311 18.1504 48.286 18.1504ZM30.9576 22.9376H48.4044V42.0212H30.9576V22.9376ZM31.076 19.7461H48.2859C48.3489 19.7461 48.4043 19.8016 48.4043 19.8646V21.3419H30.9576V19.8646C30.9576 19.8015 31.013 19.7461 31.076 19.7461ZM48.286 48.4042H31.076C31.0129 48.4042 30.9576 48.3488 30.9576 48.2857V43.617H48.4044V48.2857C48.4044 48.3488 48.3489 48.4042 48.286 48.4042Z" fill="white"/>
<path d="M41.2765 45.2126H38.085C37.6442 45.2126 37.2871 45.5699 37.2871 46.0105C37.2871 46.4512 37.6442 46.8084 38.085 46.8084H41.2765C41.7172 46.8084 42.0743 46.4512 42.0743 46.0105C42.0743 45.5699 41.7172 45.2126 41.2765 45.2126Z" fill="white"/>
</g>
<defs>
<clipPath id="clip0">
<rect width="50" height="50" fill="white"/>
</clipPath>
</defs>
</svg>
