<svg width="20" height="19" viewBox="0 0 20 19" fill="none" xmlns="http://www.w3.org/2000/svg">
<path d="M19.9 8.05725C19.9 7.94725 19.84 7.83725 19.81 7.72725C19.7637 7.53318 19.7036 7.3427 19.63 7.15725C19.58 7.03725 19.51 6.91725 19.45 6.78725C19.39 6.65725 19.3 6.48725 19.21 6.34725C19.12 6.20725 19 6.13725 19 6.05725C19 5.97725 18.8 5.80725 18.69 5.68725C18.58 5.56725 18.48 5.48725 18.37 5.38725L18 5.05725L17.64 4.81725C17.4987 4.73076 17.3517 4.65392 17.2 4.58725L16.81 4.40725C16.6467 4.34675 16.4797 4.29665 16.31 4.25725C16.1756 4.21771 16.0386 4.18764 15.9 4.16725H15.72C15.3348 2.96651 14.5811 1.91765 13.5659 1.16963C12.5507 0.42161 11.3257 0.0124577 10.0647 0.000279938C8.80376 -0.0118978 7.57103 0.373518 6.54158 1.10179C5.51213 1.83006 4.73831 2.86417 4.33 4.05725H4.15C4.0114 4.07764 3.8744 4.10771 3.74 4.14725C3.57034 4.18665 3.40334 4.23675 3.24 4.29725L2.85 4.47725C2.69832 4.54392 2.55132 4.62076 2.41 4.70725L2.05 5.05725L1.68 5.36725C1.57 5.46725 1.46 5.55725 1.36 5.66725C1.26 5.77725 1.15 5.91725 1.05 6.03725C0.95 6.15725 0.87 6.26725 0.79 6.39725C0.71 6.52725 0.63 6.68725 0.55 6.83725C0.47 6.98725 0.42 7.08725 0.37 7.20725C0.296442 7.39269 0.236288 7.58318 0.19 7.77725C0.19 7.88725 0.12 7.99725 0.0999999 8.10725C0.0377566 8.4202 0.00428374 8.73819 0 9.05725C0.0046879 9.36255 0.0347918 9.66694 0.0899999 9.96725C0.0899999 10.0672 0.14 10.1572 0.16 10.2572C0.209427 10.4537 0.269516 10.6473 0.34 10.8372L0.46 11.1272C0.548028 11.3201 0.64823 11.5071 0.76 11.6872L0.9 11.9072C0.914387 11.9353 0.931113 11.962 0.95 11.9872L1 12.0572C1.46574 12.6782 2.06966 13.1822 2.76393 13.5294C3.45821 13.8765 4.22377 14.0572 5 14.0572C5.00223 13.5277 5.21441 13.0206 5.59 12.6472C5.96335 12.2717 6.47042 12.0595 7 12.0572C7.35177 12.0539 7.6977 12.1473 8 12.3272V9.05725C8 8.52681 8.21071 8.01811 8.58579 7.64303C8.96086 7.26796 9.46957 7.05725 10 7.05725C10.5304 7.05725 11.0391 7.26796 11.4142 7.64303C11.7893 8.01811 12 8.52681 12 9.05725V12.4272C12.3038 12.251 12.6487 12.1579 13 12.1572C13.5417 12.1623 14.0595 12.3816 14.44 12.7672C14.7767 13.1153 14.9757 13.5736 15 14.0572C15.7762 14.0572 16.5418 13.8765 17.2361 13.5294C17.9303 13.1822 18.5343 12.6782 19 12.0572L19.05 12.0072C19.0689 11.982 19.0856 11.9553 19.1 11.9272L19.24 11.7072C19.3518 11.5271 19.452 11.3401 19.54 11.1472L19.66 10.8572C19.7305 10.6673 19.7906 10.4737 19.84 10.2772C19.84 10.1772 19.89 10.0872 19.91 9.98725C19.9663 9.68036 19.9964 9.36924 20 9.05725C19.9988 8.72147 19.9654 8.3866 19.9 8.05725V8.05725Z" fill="#ED2E73"/>
<path d="M12.3099 13.4371L10.9999 14.6971V9.05713C10.9999 8.79191 10.8946 8.53756 10.707 8.35002C10.5195 8.16249 10.2652 8.05713 9.99994 8.05713C9.73472 8.05713 9.48037 8.16249 9.29283 8.35002C9.1053 8.53756 8.99994 8.79191 8.99994 9.05713V14.6471L7.70994 13.3471C7.6167 13.2539 7.50601 13.1799 7.38419 13.1295C7.26237 13.079 7.1318 13.053 6.99994 13.053C6.86808 13.053 6.73751 13.079 6.61569 13.1295C6.49387 13.1799 6.38318 13.2539 6.28994 13.3471C6.1967 13.4404 6.12274 13.5511 6.07228 13.6729C6.02182 13.7947 5.99585 13.9253 5.99585 14.0571C5.99585 14.189 6.02182 14.3196 6.07228 14.4414C6.12274 14.5632 6.1967 14.6739 6.28994 14.7671L9.28994 17.7671C9.38338 17.8598 9.4942 17.9331 9.61603 17.9829C9.73787 18.0327 9.86833 18.0579 9.99994 18.0571C10.2574 18.0561 10.5046 17.9558 10.6899 17.7771L13.6899 14.8771C13.7961 14.7896 13.883 14.6811 13.9452 14.5584C14.0075 14.4357 14.0438 14.3015 14.0518 14.1642C14.0598 14.0268 14.0394 13.8893 13.9919 13.7602C13.9443 13.6311 13.8707 13.5132 13.7755 13.4139C13.6803 13.3146 13.5656 13.236 13.4387 13.183C13.3117 13.13 13.1752 13.1038 13.0376 13.1059C12.9001 13.1081 12.7645 13.1387 12.6393 13.1956C12.514 13.2526 12.4019 13.3348 12.3099 13.4371V13.4371Z" fill="#ED2E73"/>
<path d="M19.9 8.05725C19.9 7.94725 19.84 7.83725 19.81 7.72725C19.7637 7.53318 19.7036 7.3427 19.63 7.15725C19.58 7.03725 19.51 6.91725 19.45 6.78725C19.39 6.65725 19.3 6.48725 19.21 6.34725C19.12 6.20725 19 6.13725 19 6.05725C19 5.97725 18.8 5.80725 18.69 5.68725C18.58 5.56725 18.48 5.48725 18.37 5.38725L18 5.05725L17.64 4.81725C17.4987 4.73076 17.3517 4.65392 17.2 4.58725L16.81 4.40725C16.6467 4.34675 16.4797 4.29665 16.31 4.25725C16.1756 4.21771 16.0386 4.18764 15.9 4.16725H15.72C15.3348 2.96651 14.5811 1.91765 13.5659 1.16963C12.5507 0.42161 11.3257 0.0124577 10.0647 0.000279938C8.80376 -0.0118978 7.57103 0.373518 6.54158 1.10179C5.51213 1.83006 4.73831 2.86417 4.33 4.05725H4.15C4.0114 4.07764 3.8744 4.10771 3.74 4.14725C3.57034 4.18665 3.40334 4.23675 3.24 4.29725L2.85 4.47725C2.69832 4.54392 2.55132 4.62076 2.41 4.70725L2.05 5.05725L1.68 5.36725C1.57 5.46725 1.46 5.55725 1.36 5.66725C1.26 5.77725 1.15 5.91725 1.05 6.03725C0.95 6.15725 0.87 6.26725 0.79 6.39725C0.71 6.52725 0.63 6.68725 0.55 6.83725C0.47 6.98725 0.42 7.08725 0.37 7.20725C0.296442 7.39269 0.236288 7.58318 0.19 7.77725C0.19 7.88725 0.12 7.99725 0.0999999 8.10725C0.0377566 8.4202 0.00428374 8.73819 0 9.05725C0.0046879 9.36255 0.0347918 9.66694 0.0899999 9.96725C0.0899999 10.0672 0.14 10.1572 0.16 10.2572C0.209427 10.4537 0.269516 10.6473 0.34 10.8372L0.46 11.1272C0.548028 11.3201 0.64823 11.5071 0.76 11.6872L0.9 11.9072C0.914387 11.9353 0.931113 11.962 0.95 11.9872L1 12.0572C1.46574 12.6782 2.06966 13.1822 2.76393 13.5294C3.45821 13.8765 4.22377 14.0572 5 14.0572C5.00223 13.5277 5.21441 13.0206 5.59 12.6472C5.96335 12.2717 6.47042 12.0595 7 12.0572C7.35177 12.0539 7.6977 12.1473 8 12.3272V9.05725C8 8.52681 8.21071 8.01811 8.58579 7.64303C8.96086 7.26796 9.46957 7.05725 10 7.05725C10.5304 7.05725 11.0391 7.26796 11.4142 7.64303C11.7893 8.01811 12 8.52681 12 9.05725V12.4272C12.3038 12.251 12.6487 12.1579 13 12.1572C13.5417 12.1623 14.0595 12.3816 14.44 12.7672C14.7767 13.1153 14.9757 13.5736 15 14.0572C15.7762 14.0572 16.5418 13.8765 17.2361 13.5294C17.9303 13.1822 18.5343 12.6782 19 12.0572L19.05 12.0072C19.0689 11.982 19.0856 11.9553 19.1 11.9272L19.24 11.7072C19.3518 11.5271 19.452 11.3401 19.54 11.1472L19.66 10.8572C19.7305 10.6673 19.7906 10.4737 19.84 10.2772C19.84 10.1772 19.89 10.0872 19.91 9.98725C19.9663 9.68036 19.9964 9.36924 20 9.05725C19.9988 8.72147 19.9654 8.3866 19.9 8.05725V8.05725Z" fill="white"/>
<path d="M12.3099 13.4371L10.9999 14.6971V9.05713C10.9999 8.79191 10.8946 8.53756 10.707 8.35002C10.5195 8.16249 10.2652 8.05713 9.99994 8.05713C9.73472 8.05713 9.48037 8.16249 9.29283 8.35002C9.1053 8.53756 8.99994 8.79191 8.99994 9.05713V14.6471L7.70994 13.3471C7.6167 13.2539 7.50601 13.1799 7.38419 13.1295C7.26237 13.079 7.1318 13.053 6.99994 13.053C6.86808 13.053 6.73751 13.079 6.61569 13.1295C6.49387 13.1799 6.38318 13.2539 6.28994 13.3471C6.1967 13.4404 6.12274 13.5511 6.07228 13.6729C6.02182 13.7947 5.99585 13.9253 5.99585 14.0571C5.99585 14.189 6.02182 14.3196 6.07228 14.4414C6.12274 14.5632 6.1967 14.6739 6.28994 14.7671L9.28994 17.7671C9.38338 17.8598 9.4942 17.9331 9.61603 17.9829C9.73787 18.0327 9.86833 18.0579 9.99994 18.0571C10.2574 18.0561 10.5046 17.9558 10.6899 17.7771L13.6899 14.8771C13.7961 14.7896 13.883 14.6811 13.9452 14.5584C14.0075 14.4357 14.0438 14.3015 14.0518 14.1642C14.0598 14.0268 14.0394 13.8893 13.9919 13.7602C13.9443 13.6311 13.8707 13.5132 13.7755 13.4139C13.6803 13.3146 13.5656 13.236 13.4387 13.183C13.3117 13.13 13.1752 13.1038 13.0376 13.1059C12.9001 13.1081 12.7645 13.1387 12.6393 13.1956C12.514 13.2526 12.4019 13.3348 12.3099 13.4371V13.4371Z" fill="white"/>
</svg>
