<svg width="22" height="22" viewBox="0 0 22 22" fill="none" xmlns="http://www.w3.org/2000/svg">
<path d="M20.7783 0H1.22271C0.898557 0 0.58768 0.128769 0.358469 0.357981C0.129258 0.587192 0.000488281 0.898069 0.000488281 1.22222V20.7778C0.000488281 21.1019 0.129258 21.4128 0.358469 21.642C0.58768 21.8712 0.898557 22 1.22271 22H11.7522V13.4933H8.8946V10.1628H11.7522V7.71833C11.7522 4.87667 13.4877 3.32811 16.0299 3.32811C16.8843 3.32567 17.7398 3.36967 18.5905 3.45889V6.41667H16.8366C15.4579 6.41667 15.189 7.07422 15.189 8.03611V10.1567H18.4854L18.0576 13.4872H15.1878V22H20.7783C21.1024 22 21.4133 21.8712 21.6425 21.642C21.8717 21.4128 22.0005 21.1019 22.0005 20.7778V1.22222C22.0005 0.898069 21.8717 0.587192 21.6425 0.357981C21.4133 0.128769 21.1024 0 20.7783 0V0Z" fill="#CC005E"/>
</svg>
