<svg width="19" height="18" viewBox="0 0 19 18" fill="none" xmlns="http://www.w3.org/2000/svg">
<path d="M17.2258 0H1.22583C0.960614 0 0.70626 0.105357 0.518723 0.292893C0.331187 0.48043 0.22583 0.734784 0.22583 1V17C0.22583 17.2652 0.331187 17.5196 0.518723 17.7071C0.70626 17.8946 0.960614 18 1.22583 18H9.84083V11.04H7.50283V8.315H9.84083V6.315C9.84083 3.99 11.2608 2.723 13.3408 2.723C14.0398 2.721 14.7398 2.757 15.4358 2.83V5.25H14.0008C12.8728 5.25 12.6528 5.788 12.6528 6.575V8.31H15.3498L14.9998 11.035H12.6518V18H17.2258C17.491 18 17.7454 17.8946 17.9329 17.7071C18.1205 17.5196 18.2258 17.2652 18.2258 17V1C18.2258 0.734784 18.1205 0.48043 17.9329 0.292893C17.7454 0.105357 17.491 0 17.2258 0V0Z" fill="#CC005E"/>
</svg>
