<svg width="85" height="25" viewBox="0 0 85 25" fill="none" xmlns="http://www.w3.org/2000/svg">
<g clip-path="url(#clip0)">
<path fill-rule="evenodd" clip-rule="evenodd" d="M81.022 25H3.47799C1.7678 25 0.375 23.591 0.375 21.875V3.125C0.375 1.40274 1.7678 0 3.47799 0H81.022C82.7307 0 84.125 1.40274 84.125 3.125V21.875C84.125 23.591 82.7307 25 81.022 25Z" fill="black"/>
<path fill-rule="evenodd" clip-rule="evenodd" d="M81.022 0.500312C82.4564 0.500312 83.6304 1.68017 83.6304 3.125V21.875C83.6304 23.3198 82.4641 24.4997 81.022 24.4997H3.47799C2.04359 24.4997 0.869568 23.3198 0.869568 21.875V3.125C0.869568 1.68017 2.03589 0.500312 3.47799 0.500312C3.47799 0.500312 81.022 0.500312 81.022 0.500312ZM81.022 0H3.47799C1.7678 0 0.375 1.40898 0.375 3.125V21.875C0.375 23.5973 1.7678 25 3.47799 25H81.022C82.7307 25 84.125 23.5973 84.125 21.875V3.125C84.125 1.40898 82.7307 0 81.022 0Z" fill="#A6A6A6"/>
<path d="M44.4948 8.26997C43.9356 8.26997 43.4641 8.07203 43.0912 7.68238C42.7215 7.30364 42.515 6.78151 42.5243 6.24847C42.5243 5.67958 42.7153 5.19797 43.0912 4.81611C43.4626 4.42646 43.934 4.22852 44.4933 4.22852C45.0464 4.22852 45.5179 4.42646 45.8969 4.81611C46.2728 5.21044 46.4639 5.69204 46.4639 6.24847C46.4577 6.81891 46.2666 7.30052 45.8969 7.68082C45.5256 8.07359 45.0541 8.26997 44.4948 8.26997ZM27.8536 8.26997C27.3067 8.26997 26.8321 8.07515 26.4439 7.69017C26.0587 7.30676 25.863 6.82203 25.863 6.25002C25.863 5.67802 26.0587 5.19329 26.4439 4.80987C26.8244 4.4249 27.299 4.23007 27.8536 4.23007C28.1248 4.23007 28.3883 4.28463 28.6409 4.39529C28.889 4.50283 29.0908 4.64934 29.2403 4.82858L29.2772 4.87378L28.8597 5.28837L28.8166 5.23693C28.5808 4.95327 28.265 4.81455 27.8475 4.81455C27.4746 4.81455 27.1495 4.94859 26.8814 5.21355C26.6118 5.48007 26.4747 5.8292 26.4747 6.25158C26.4747 6.67396 26.6118 7.02309 26.8814 7.28961C27.1495 7.55458 27.4746 7.68862 27.8475 7.68862C28.245 7.68862 28.5793 7.55458 28.8397 7.28961C28.9938 7.13375 29.0893 6.91555 29.1232 6.63968H27.7843V6.05676H29.6979L29.7056 6.10975C29.7194 6.20794 29.7333 6.30925 29.7333 6.40277C29.7333 6.94049 29.5731 7.37534 29.2557 7.69641C28.8952 8.07671 28.4237 8.26997 27.8536 8.26997ZM49.9798 8.18737H49.3897L47.5824 5.26187L47.5978 5.78868V8.18581H47.0077V4.31268H47.681L47.6995 4.34229L49.3989 7.0979L49.3835 6.57266V4.31268H49.9798V8.18737V8.18737ZM40.0607 8.18737H39.4629V4.8956H38.426V4.31268H41.096V4.8956H40.0591V8.18737H40.0607ZM37.9391 8.18737H37.3429V4.31268H37.9391V8.18737ZM34.5881 8.18737H33.9918V4.8956H32.9549V4.31268H35.625V4.8956H34.5881V8.18737ZM32.5774 8.18113H30.291V4.31268H32.5774V4.8956H30.8888V5.95857H32.4126V6.53525H30.8888V7.59822H32.5774V8.18113ZM43.5288 7.28182C43.7953 7.55146 44.1189 7.68706 44.4948 7.68706C44.8815 7.68706 45.1974 7.55458 45.4609 7.28182C45.7228 7.01686 45.8553 6.66929 45.8553 6.25002C45.8553 5.83076 45.7228 5.48163 45.4624 5.21823C45.1958 4.94859 44.8708 4.81299 44.4964 4.81299C44.1096 4.81299 43.7938 4.94547 43.5319 5.21823C43.27 5.48319 43.1375 5.83076 43.1375 6.25002C43.1375 6.66929 43.2684 7.01842 43.5288 7.28182Z" fill="white"/>
<path fill-rule="evenodd" clip-rule="evenodd" d="M42.4687 13.5972C41.0128 13.5972 39.8326 14.7147 39.8326 16.2562C39.8326 17.7836 41.0205 18.9152 42.4687 18.9152C43.9247 18.9152 45.1049 17.7899 45.1049 16.2562C45.1049 14.7147 43.9247 13.5972 42.4687 13.5972ZM42.4687 17.8616C41.6722 17.8616 40.9866 17.1945 40.9866 16.25C40.9866 15.2914 41.6737 14.6384 42.4687 14.6384C43.2653 14.6384 43.9509 15.2914 43.9509 16.25C43.9525 17.2007 43.2653 17.8616 42.4687 17.8616ZM36.7173 13.5972C35.2613 13.5972 34.0811 14.7147 34.0811 16.2562C34.0811 17.7836 35.269 18.9152 36.7173 18.9152C38.1732 18.9152 39.3534 17.7899 39.3534 16.2562C39.3534 14.7147 38.1717 13.5972 36.7173 13.5972ZM36.7173 17.8616C35.9207 17.8616 35.2351 17.1945 35.2351 16.25C35.2351 15.2914 35.9223 14.6384 36.7173 14.6384C37.5138 14.6384 38.1994 15.2914 38.1994 16.25C38.1994 17.2007 37.5138 17.8616 36.7173 17.8616ZM29.8734 14.4093V15.5346H32.5435C32.4618 16.1658 32.2554 16.6318 31.9395 16.9513C31.5482 17.3472 30.9442 17.7774 29.8796 17.7774C28.2387 17.7774 26.9553 16.437 26.9553 14.7771C26.9553 13.1172 28.2387 11.7768 29.8796 11.7768C30.7655 11.7768 31.4111 12.1306 31.8902 12.5826L32.6791 11.7846C32.0135 11.1393 31.1276 10.6452 29.8857 10.6452C27.6348 10.6452 25.7458 12.5 25.7458 14.7709C25.7458 17.048 27.6332 18.8965 29.8857 18.8965C31.1014 18.8965 32.0135 18.4944 32.7345 17.7369C33.4694 16.9934 33.7021 15.9445 33.7021 15.0982C33.7021 14.8348 33.6821 14.5979 33.6405 14.3968H29.8719C29.8734 14.3952 29.8734 14.4093 29.8734 14.4093ZM57.8666 15.2852C57.6463 14.6883 56.9807 13.591 55.6156 13.591C54.2629 13.591 53.1382 14.668 53.1382 16.25C53.1382 17.7431 54.2506 18.9089 55.7466 18.9089C56.9484 18.9089 57.6478 18.1655 57.936 17.7291L57.0439 17.1243C56.7481 17.5685 56.3367 17.86 55.7528 17.86C55.1627 17.86 54.7498 17.5888 54.4755 17.0542L57.9899 15.5813C57.9899 15.5829 57.8666 15.2852 57.8666 15.2852ZM54.2829 16.1736C54.2552 15.1465 55.0718 14.6243 55.6557 14.6243C56.1164 14.6243 56.5 14.8535 56.631 15.187L54.2829 16.1736ZM51.428 18.75H52.582V10.9383H51.428V18.75ZM49.5329 14.1879H49.4913C49.2309 13.8747 48.7364 13.591 48.1047 13.591C46.7935 13.591 45.5856 14.7584 45.5856 16.2578C45.5856 17.7509 46.7874 18.9043 48.1047 18.9043C48.7287 18.9043 49.2309 18.619 49.4913 18.2995H49.5329V18.6814C49.5329 19.696 48.9967 20.2431 48.1324 20.2431C47.4252 20.2431 46.9861 19.7288 46.8074 19.2986L45.8044 19.7225C46.0925 20.4239 46.8613 21.2921 48.1309 21.2921C49.4836 21.2921 50.6299 20.4863 50.6299 18.5209V13.75H49.5391V14.1879C49.5406 14.1879 49.5329 14.1879 49.5329 14.1879ZM48.2079 17.8616C47.4114 17.8616 46.7458 17.1883 46.7458 16.2578C46.7458 15.3195 47.4114 14.6399 48.2079 14.6399C48.9967 14.6399 49.6084 15.3273 49.6084 16.2578C49.6161 17.1883 48.9983 17.8616 48.2079 17.8616ZM63.2699 10.9383H60.5105V18.75H61.6645V15.7917H63.2714C64.5487 15.7917 65.8044 14.855 65.8044 13.3681C65.8044 11.8812 64.5533 10.9383 63.2699 10.9383ZM63.3038 14.7007H61.6629V12.0199H63.3038C64.1681 12.0199 64.6565 12.7416 64.6565 13.3603C64.6565 13.9729 64.162 14.7007 63.3038 14.7007ZM70.4296 13.5832C69.5914 13.5832 68.7271 13.9588 68.3697 14.7771L69.3927 15.2073C69.613 14.7771 70.0167 14.6306 70.4435 14.6306C71.0413 14.6306 71.6452 14.9922 71.6591 15.6374V15.72C71.4526 15.6016 70.9997 15.4208 70.4573 15.4208C69.3526 15.4208 68.2325 16.0318 68.2325 17.1773C68.2325 18.2263 69.1385 18.8996 70.1476 18.8996C70.9226 18.8996 71.3494 18.5458 71.6159 18.1359H71.6575V18.7406H72.7699V15.7481C72.7699 14.3547 71.7469 13.5832 70.4296 13.5832ZM70.2848 17.8616C69.9073 17.8616 69.3788 17.6745 69.3788 17.1945C69.3788 16.5897 70.0383 16.3606 70.6006 16.3606C71.109 16.3606 71.3494 16.4713 71.6514 16.624C71.5682 17.3254 70.9827 17.8553 70.2848 17.8616ZM76.8282 13.75L75.5032 17.1384H75.4616L74.0888 13.75H72.847L74.9069 18.4866L73.7329 21.119H74.9346L78.1039 13.75H76.8282ZM66.4407 18.75H67.5947V10.9383H66.4407V18.75Z" fill="white"/>
<path fill-rule="evenodd" clip-rule="evenodd" d="M6.82126 4.70862C6.64253 4.90344 6.53931 5.20114 6.53931 5.59079V19.4109C6.53931 19.8006 6.64253 20.0983 6.82742 20.2853L6.87518 20.3274L14.5294 12.5842V12.4112L6.86902 4.66653L6.82126 4.70862Z" fill="url(#paint0_linear)"/>
<path fill-rule="evenodd" clip-rule="evenodd" d="M17.0764 15.173L14.5234 12.5904V12.4096L17.0764 9.82697L17.1319 9.86125L20.1517 11.5975C21.016 12.0901 21.016 12.9036 20.1517 13.4024L17.1319 15.1387L17.0764 15.173Z" fill="url(#paint1_linear)"/>
<path fill-rule="evenodd" clip-rule="evenodd" d="M17.1317 15.1387L14.5233 12.5L6.82129 20.2915C7.10324 20.5969 7.57624 20.6312 8.1047 20.3335L17.1317 15.1387Z" fill="url(#paint2_linear)"/>
<path fill-rule="evenodd" clip-rule="evenodd" d="M17.1317 9.86137L8.1047 4.67434C7.57624 4.36885 7.1017 4.41093 6.82129 4.71642L14.5233 12.5001L17.1317 9.86137Z" fill="url(#paint3_linear)"/>
<path opacity="0.2" fill-rule="evenodd" clip-rule="evenodd" d="M17.0762 15.0826L8.11081 20.2354C7.61008 20.5268 7.16327 20.5066 6.87515 20.2416L6.82739 20.2899L6.87515 20.332C7.16327 20.5954 7.61008 20.6172 8.11081 20.3258L17.1378 15.1388L17.0762 15.0826Z" fill="black"/>
<path opacity="0.12" fill-rule="evenodd" clip-rule="evenodd" d="M20.1516 13.312L17.0686 15.0826L17.1241 15.1387L20.1439 13.4024C20.5768 13.1531 20.7894 12.8257 20.7894 12.5C20.7632 12.7993 20.5429 13.0829 20.1516 13.312Z" fill="black"/>
<path opacity="0.25" fill-rule="evenodd" clip-rule="evenodd" d="M8.10467 4.76468L20.1515 11.688C20.5428 11.9109 20.7632 12.2023 20.7971 12.5C20.7971 12.1743 20.5844 11.847 20.1515 11.5976L8.10467 4.67428C7.24033 4.17397 6.53931 4.59168 6.53931 5.59074V5.68114C6.53931 4.68052 7.24033 4.2706 8.10467 4.76468Z" fill="white"/>
</g>
<defs>
<linearGradient id="paint0_linear" x1="13.8429" y1="5.44168" x2="1.56349" y2="8.67598" gradientUnits="userSpaceOnUse">
<stop stop-color="#00A0FF"/>
<stop offset="0.00657" stop-color="#00A1FF"/>
<stop offset="0.2601" stop-color="#00BEFF"/>
<stop offset="0.5122" stop-color="#00D2FF"/>
<stop offset="0.7604" stop-color="#00DFFF"/>
<stop offset="1" stop-color="#00E3FF"/>
</linearGradient>
<linearGradient id="paint1_linear" x1="21.2788" y1="12.5" x2="6.32938" y2="12.5" gradientUnits="userSpaceOnUse">
<stop stop-color="#FFE000"/>
<stop offset="0.4087" stop-color="#FFBD00"/>
<stop offset="0.7754" stop-color="#FFA500"/>
<stop offset="1" stop-color="#FF9C00"/>
</linearGradient>
<linearGradient id="paint2_linear" x1="15.7134" y1="13.9358" x2="5.70156" y2="30.5931" gradientUnits="userSpaceOnUse">
<stop stop-color="#FF3A44"/>
<stop offset="1" stop-color="#C31162"/>
</linearGradient>
<linearGradient id="paint3_linear" x1="4.88184" y1="0.11183" x2="9.34855" y2="7.5513" gradientUnits="userSpaceOnUse">
<stop stop-color="#32A071"/>
<stop offset="0.0685" stop-color="#2DA771"/>
<stop offset="0.4762" stop-color="#15CF74"/>
<stop offset="0.8009" stop-color="#06E775"/>
<stop offset="1" stop-color="#00F076"/>
</linearGradient>
<clipPath id="clip0">
<rect width="83.75" height="25" fill="white" transform="translate(0.375)"/>
</clipPath>
</defs>
</svg>
