<svg width="50" height="50" viewBox="0 0 50 50" fill="none" xmlns="http://www.w3.org/2000/svg">
<path d="M42.6777 7.32231C37.9559 2.60048 31.6776 0 25 0C19.9192 0 15.0269 1.51711 10.8528 4.3869C10.4084 4.69284 10.2959 5.30052 10.6014 5.74493C10.907 6.18973 11.515 6.30226 11.9595 5.99632C15.8066 3.35121 20.3159 1.95312 25 1.95312C37.7079 1.95312 48.0469 12.2921 48.0469 25C48.0469 37.7079 37.7079 48.0469 25 48.0469C12.2921 48.0469 1.95312 37.7079 1.95312 25C1.95312 20.3152 3.35121 15.8062 5.99594 11.9598C6.3015 11.5154 6.18896 10.9077 5.74455 10.6022C5.30052 10.2966 4.69246 10.4088 4.38652 10.8532C1.51672 15.0265 0 19.9184 0 25C0 31.6776 2.60048 37.9559 7.32231 42.6777C12.0441 47.3995 18.3224 50 25 50C31.6776 50 37.9559 47.3995 42.6777 42.6777C47.3995 37.9559 50 31.6776 50 25C50 18.3224 47.3995 12.0441 42.6777 7.32231V7.32231Z" fill="#DD1869"/>
<path d="M8.01231 8.98926C8.26255 8.98926 8.5128 8.89389 8.70353 8.70316C9.08462 8.32207 9.08462 7.7037 8.70353 7.32224C8.32206 6.94077 7.7037 6.94077 7.32223 7.32224L7.32185 7.32262C6.94038 7.70409 6.94076 8.32207 7.32185 8.70354C7.51258 8.89427 7.76245 8.98926 8.01231 8.98926Z" fill="#DD1869"/>
<path d="M17.1544 31.7665C17.0148 31.2454 16.4792 30.9364 15.9585 31.076C15.4374 31.2156 15.128 31.7508 15.2676 32.2719C16.446 36.6688 20.448 39.7396 25.0001 39.7396C29.5522 39.7396 33.5542 36.6691 34.7325 32.2719C34.8721 31.7508 34.5628 31.2156 34.0417 31.076C33.5206 30.9364 32.9854 31.2454 32.8458 31.7665C31.8959 35.3111 28.6698 37.7865 25.0001 37.7865C21.3303 37.7865 18.1043 35.3111 17.1544 31.7665V31.7665Z" fill="#DD1869"/>
<path d="M30.3254 24.6159C30.6268 23.4921 31.6495 22.707 32.813 22.707C33.9761 22.707 34.9988 23.4921 35.3002 24.6159C35.4169 25.0519 35.8114 25.3399 36.2428 25.3399C36.3263 25.3399 36.4114 25.3289 36.4961 25.3064C37.0172 25.1667 37.3262 24.6312 37.1866 24.1105C36.6571 22.1341 34.8588 20.7539 32.813 20.7539C30.7672 20.7539 28.9685 22.1341 28.4391 24.1105C28.2994 24.6312 28.6084 25.1667 29.1295 25.3064C29.651 25.446 30.1862 25.1366 30.3254 24.6159V24.6159Z" fill="#DD1869"/>
<path d="M17.1871 20.7539C15.1413 20.7539 13.343 22.1341 12.8136 24.1105C12.674 24.6312 12.9829 25.1667 13.504 25.3064C14.0255 25.446 14.5607 25.1366 14.6999 24.6159C15.0013 23.4921 16.024 22.707 17.1871 22.707C18.3506 22.707 19.3733 23.4921 19.6747 24.6159C19.7914 25.0519 20.1859 25.3399 20.6173 25.3399C20.7008 25.3399 20.7859 25.3289 20.8706 25.3064C21.3917 25.1667 21.7007 24.6312 21.5611 24.1105C21.0316 22.1341 19.2329 20.7539 17.1871 20.7539V20.7539Z" fill="#DD1869"/>
</svg>
