<svg width="141" height="30" viewBox="0 0 141 30" fill="none" xmlns="http://www.w3.org/2000/svg">
<path d="M26.7153 11.3643C27.888 11.9823 28.851 12.9383 29.4812 14.1102C30.182 15.4597 30.5278 16.9674 30.4858 18.4896V29.6483H26.6327V19.0896C26.6327 17.3933 26.2123 16.0941 25.3715 15.1919C24.9255 14.7331 24.3878 14.3748 23.7941 14.1408C23.2003 13.9067 22.564 13.8023 21.9272 13.8343C21.2849 13.8004 20.6429 13.9038 20.0432 14.1378C19.4435 14.3718 18.8999 14.731 18.4481 15.1919C17.5957 16.0941 17.1695 17.3933 17.1695 19.0896V29.6658H13.3163V19.0896C13.3163 17.3933 12.896 16.0941 12.0552 15.1919C11.6091 14.7331 11.0715 14.3748 10.4777 14.1408C9.88397 13.9067 9.24765 13.8023 8.61083 13.8343C7.96859 13.8004 7.32651 13.9038 6.72684 14.1378C6.12717 14.3718 5.58352 14.731 5.1317 15.1919C4.27932 16.0941 3.85312 17.3933 3.85312 19.0896V29.6658H0V10.7425H3.88792V12.9103C4.53992 12.1176 5.37038 11.493 6.31027 11.0884C7.29832 10.6515 8.36672 10.4292 9.44582 10.4359C10.8453 10.4118 12.2284 10.7415 13.4686 11.395C14.637 12.0248 15.5891 12.9958 16.1997 14.1803C16.7834 13.0145 17.7117 12.0598 18.8568 11.4476C20.0442 10.7777 21.3838 10.4292 22.7448 10.4359C24.1241 10.4111 25.488 10.73 26.7153 11.3643V11.3643Z" fill="#B61E53"/>
<path d="M52.5131 21.6646H38.1617C38.2189 23.0522 38.8193 24.3606 39.8317 25.3039C40.8379 26.2227 42.1573 26.7153 43.5152 26.679C45.6084 26.679 47.0856 25.8031 47.9467 24.0513H52.1434C51.5906 25.7699 50.5092 27.2668 49.0557 28.3256C47.4402 29.4779 45.4936 30.0641 43.5152 29.9942C41.8273 30.0219 40.1621 29.6004 38.6879 28.7723C37.2761 27.9669 36.1185 26.7768 35.3479 25.3389C34.5129 23.755 34.0966 21.9814 34.1389 20.1887C34.1009 18.4062 34.5045 16.6422 35.3131 15.0561C36.0607 13.6148 37.2113 12.4258 38.6226 11.6358C40.1232 10.817 41.8088 10.4036 43.5152 10.4358C45.1691 10.4064 46.8023 10.8093 48.2555 11.6051C49.6238 12.3632 50.7481 13.4999 51.4954 14.8809C52.2884 16.3746 52.6868 18.0486 52.6522 19.742C52.6562 20.3856 52.6097 21.0284 52.5131 21.6646V21.6646ZM48.599 18.507C48.6134 17.8506 48.4832 17.1991 48.2178 16.5994C47.9523 15.9997 47.5582 15.4666 47.0639 15.0386C46.0306 14.1518 44.7069 13.6835 43.3499 13.7248C42.0809 13.6966 40.849 14.1571 39.9056 15.0123C38.9215 15.9238 38.3131 17.1741 38.2008 18.5158L48.599 18.507Z" fill="#B61E53"/>
<path d="M56.9664 15.0695C57.7011 13.6524 58.8124 12.4688 60.1762 11.6506C61.54 10.8325 63.1028 10.412 64.6901 10.4361C65.9437 10.4415 67.1817 10.7162 68.3214 11.2419C69.4282 11.7166 70.4053 12.4526 71.17 13.3878V0H75.084V29.666H71.17V26.815C70.4824 27.7741 69.5754 28.5522 68.5258 29.0835C67.3254 29.6876 65.9969 29.9883 64.6553 29.9594C63.073 29.9737 61.5189 29.538 60.1716 28.7025C58.8036 27.8537 57.6945 26.6414 56.9664 25.199C56.1617 23.6238 55.7568 21.8725 55.7879 20.1014C55.756 18.3512 56.1612 16.6209 56.9664 15.0695V15.0695ZM70.3654 16.7862C69.878 15.8775 69.1532 15.1202 68.2692 14.5965C67.4212 14.0966 66.4555 13.835 65.4729 13.8389C64.4926 13.8353 63.5284 14.0905 62.6765 14.579C61.7923 15.0907 61.0666 15.8397 60.5804 16.7424C60.0247 17.7795 59.7488 18.9453 59.7802 20.1233C59.7519 21.3177 60.0273 22.4997 60.5804 23.5567C61.0647 24.4894 61.7963 25.2686 62.6939 25.8077C63.5394 26.3066 64.5017 26.5695 65.4816 26.5695C66.4615 26.5695 67.4237 26.3066 68.2692 25.8077C69.1563 25.2803 69.8817 24.5165 70.3654 23.6005C70.92 22.5502 71.1971 21.3739 71.17 20.1846C71.1974 19.0009 70.9202 17.8301 70.3654 16.7862V16.7862Z" fill="#B61E53"/>
<path d="M86.1866 11.312C87.3784 10.7187 88.693 10.4185 90.0224 10.4361C91.6032 10.4167 93.1593 10.8316 94.5235 11.636C95.8785 12.4534 96.9773 13.6388 97.6938 15.0563C98.4891 16.6218 98.888 18.3608 98.855 20.1189C98.8854 21.8879 98.4868 23.6377 97.6938 25.2165C96.9748 26.6597 95.871 27.8728 94.5061 28.72C93.2523 29.4701 91.8346 29.8984 90.3778 29.9671C88.921 30.0358 87.4698 29.7429 86.1518 29.1142C85.1014 28.6067 84.185 27.8564 83.4773 26.9245V29.6703H79.5894V0H83.4773V13.5761C84.1835 12.6101 85.1136 11.8328 86.1866 11.312V11.312ZM94.0973 16.738C93.607 15.8324 92.8749 15.083 91.9837 14.5746C91.1252 14.0869 90.1557 13.8319 89.17 13.8345C88.1934 13.8348 87.2344 14.0962 86.391 14.5921C85.5 15.1124 84.7687 15.8701 84.2775 16.7818C83.7234 17.8275 83.4477 18.9998 83.4773 20.1846C83.4488 21.3735 83.7244 22.5498 84.2775 23.6005C84.7637 24.5227 85.4956 25.2901 86.391 25.8165C87.2414 26.3107 88.2069 26.5688 89.1887 26.5641C90.1706 26.5595 91.1336 26.2924 91.9794 25.7902C92.877 25.251 93.6086 24.4718 94.0929 23.5392C94.646 22.4821 94.9215 21.3002 94.8931 20.1058C94.9236 18.9325 94.6492 17.7717 94.0973 16.738V16.738Z" fill="#ED2E73"/>
<path d="M134.694 20.097L140.761 29.6791H136.364L132.307 23.2589L128.51 29.6659H124.453L130.541 20.3597L124.453 10.7251H128.849L132.907 17.1496L136.725 10.7251H140.783L134.694 20.097Z" fill="#ED2E73"/>
<path d="M120.995 12.7266C119.195 10.9968 116.646 11.0931 114.472 11.9252L115.076 12.4288C115.764 12.0835 116.522 11.9036 117.29 11.9033C117.966 11.8827 118.639 12.0094 119.262 12.2747C119.884 12.54 120.443 12.9376 120.899 13.4405C122.639 15.4506 122.639 18.6607 120.899 20.8854C120.314 21.5912 119.682 22.2569 119.008 22.8781C118.971 22.9131 118.926 22.9371 118.877 22.9472C118.827 22.9573 118.776 22.953 118.729 22.935C118.536 22.8846 118.334 22.8834 118.14 22.9316C117.947 22.9797 117.768 23.0757 117.62 23.2109C116.99 23.6225 115.355 25.6283 113.706 26.583C113.028 26.9465 112.376 26.7275 112.376 26.0487V17.6403C112.376 13.9616 112.784 10.6333 108.609 10.6333C107.091 10.6326 105.616 11.1384 104.413 12.0718C103.211 13.0052 102.35 14.3136 101.964 15.7922C101.502 17.6726 101.773 19.6597 102.721 21.3453C103.069 22.015 103.486 22.6461 103.965 23.2284C104.45 23.8172 104.973 24.3732 105.53 24.8926C107.293 26.4621 109.184 27.8788 111.184 29.1274L111.858 29.5654C112.015 29.6714 112.2 29.7264 112.389 29.723C112.603 29.7216 112.812 29.6594 112.993 29.5435L114.167 28.7202C115.917 27.4157 117.599 26.0227 119.208 24.5466C119.316 24.4179 119.389 24.2627 119.419 24.0966C119.449 23.9305 119.434 23.7594 119.377 23.6007C119.363 23.5541 119.361 23.5042 119.374 23.4569C119.386 23.4097 119.411 23.3669 119.447 23.3335C120.099 22.7073 120.669 22.1292 121.086 21.6518C123.418 18.9979 123.413 15.0433 120.995 12.7266Z" fill="#ED2E73"/>
<path d="M116.09 12.7748L114.689 13.1383C114.588 13.1658 114.483 13.1728 114.38 13.1587C114.276 13.1447 114.176 13.1099 114.086 13.0564C113.996 13.0029 113.918 12.9319 113.856 12.8474C113.793 12.7629 113.749 12.6668 113.724 12.5646L113.685 12.4069C113.659 12.3065 113.654 12.2021 113.669 12.0996C113.684 11.9972 113.719 11.8987 113.772 11.8099C113.825 11.7212 113.895 11.6439 113.978 11.5824C114.06 11.521 114.154 11.4768 114.254 11.4522L115.655 11.0843C115.856 11.0352 116.068 11.0679 116.246 11.1753C116.423 11.2826 116.551 11.4561 116.603 11.658L116.642 11.8201C116.691 12.0203 116.661 12.232 116.558 12.4103C116.455 12.5886 116.287 12.7193 116.09 12.7748V12.7748Z" fill="#B61E53"/>
</svg>
