<svg width="24" height="18" viewBox="0 0 24 18" fill="none" xmlns="http://www.w3.org/2000/svg">
<path d="M22.79 0.00789702C22.6878 -0.00263234 22.5848 -0.00263234 22.4826 0.00789702H1.49181C1.35728 0.00996997 1.22363 0.0301422 1.09448 0.0678706L11.9272 10.8556L22.79 0.00789702Z" fill="white"/>
<path d="M23.8995 1.0498L12.9843 11.92C12.7034 12.1993 12.3234 12.356 11.9273 12.356C11.5312 12.356 11.1511 12.1993 10.8702 11.92L0.052477 1.13227C0.0192211 1.2545 0.00158832 1.38044 0 1.5071V16.5005C0 16.8982 0.157966 17.2795 0.439147 17.5607C0.720328 17.8419 1.10169 17.9999 1.49934 17.9999H22.4901C22.8878 17.9999 23.2691 17.8419 23.5503 17.5607C23.8315 17.2795 23.9895 16.8982 23.9895 16.5005V1.5071C23.9835 1.35091 23.9531 1.19662 23.8995 1.0498V1.0498ZM2.52639 16.5005H1.48435V15.4285L6.93445 10.0234L7.99149 11.0804L2.52639 16.5005ZM22.4751 16.5005H21.4256L15.9605 11.0804L17.0175 10.0234L22.4676 15.4285L22.4751 16.5005Z" fill="white"/>
</svg>
