<svg width="40" height="40" viewBox="0 0 40 40" fill="none" xmlns="http://www.w3.org/2000/svg">
<path d="M37.0703 1.44531H2.92969C1.31422 1.44531 0 2.75953 0 4.375V30.1562C0 31.7717 1.31422 33.0859 2.92969 33.0859H15.4341L14.7289 35.5542C14.4457 36.5455 13.3355 37.3828 12.3047 37.3828H7.89062C7.56703 37.3828 7.30469 37.6451 7.30469 37.9688C7.30469 38.2924 7.56703 38.5547 7.89062 38.5547H32.1094C32.433 38.5547 32.6953 38.2924 32.6953 37.9688C32.6953 37.6451 32.433 37.3828 32.1094 37.3828H27.6953C26.6645 37.3828 25.5543 36.5454 25.2711 35.5542L24.5659 33.0859H37.0703C38.6858 33.0859 40 31.7717 40 30.1562V4.375C40 2.75953 38.6858 1.44531 37.0703 1.44531ZM2.92969 2.61719H37.0703C38.0396 2.61719 38.8281 3.40578 38.8281 4.375V24.8828H1.17188V4.375C1.17188 3.40578 1.96039 2.61719 2.92969 2.61719ZM24.1443 35.8762C24.3051 36.4391 24.6247 36.9562 25.0437 37.3828H14.9563C15.3753 36.9562 15.6949 36.439 15.8557 35.8762L16.6529 33.0859H23.347L24.1443 35.8762ZM37.0703 31.9141H2.92969C1.96039 31.9141 1.17188 31.1255 1.17188 30.1562V26.0547H38.8281V30.1562C38.8281 31.1255 38.0396 31.9141 37.0703 31.9141Z" fill="white"/>
<path d="M2.92969 23.7109H37.0703C37.3939 23.7109 37.6562 23.4487 37.6562 23.125V4.375C37.6562 4.05133 37.3939 3.78906 37.0703 3.78906H2.92969C2.60609 3.78906 2.34375 4.05133 2.34375 4.375V12.5781C2.34375 12.9018 2.60609 13.1641 2.92969 13.1641C3.25328 13.1641 3.51562 12.9018 3.51562 12.5781V4.96094H36.4844V22.5391H3.51562V14.9219C3.51562 14.5982 3.25328 14.3359 2.92969 14.3359C2.60609 14.3359 2.34375 14.5982 2.34375 14.9219V23.125C2.34375 23.4487 2.60609 23.7109 2.92969 23.7109Z" fill="white"/>
<path d="M20 27.2266C19.0307 27.2266 18.2422 28.0152 18.2422 28.9844C18.2422 29.9536 19.0307 30.7422 20 30.7422C20.9693 30.7422 21.7578 29.9536 21.7578 28.9844C21.7578 28.0152 20.9693 27.2266 20 27.2266ZM20 29.5703C19.6769 29.5703 19.4141 29.3075 19.4141 28.9844C19.4141 28.6612 19.6769 28.3984 20 28.3984C20.3231 28.3984 20.5859 28.6612 20.5859 28.9844C20.5859 29.3075 20.3231 29.5703 20 29.5703Z" fill="white"/>
</svg>
