<svg width="40" height="40" viewBox="0 0 40 40" fill="none" xmlns="http://www.w3.org/2000/svg">
<g clip-path="url(#clip0)">
<path d="M27.8547 5.69678C26.9716 5.69678 26.2532 4.97834 26.2532 4.09521C26.2532 3.21209 26.9716 2.49365 27.8547 2.49365C28.7379 2.49365 29.4563 3.21209 29.4563 4.09521C29.4563 4.97834 28.7378 5.69678 27.8547 5.69678ZM27.8547 3.66553C27.6178 3.66553 27.425 3.85826 27.425 4.09521C27.425 4.33217 27.6178 4.5249 27.8547 4.5249C28.0917 4.5249 28.2844 4.33217 28.2844 4.09521C28.2844 3.85826 28.0916 3.66553 27.8547 3.66553Z" fill="white"/>
<path d="M28.5323 0H11.4677C9.60297 0 8.08594 1.51703 8.08594 3.3818V6.29875C8.08594 6.62234 8.34828 6.88469 8.67188 6.88469C8.99547 6.88469 9.25781 6.62234 9.25781 6.29875V3.3818C9.25781 2.1632 10.2491 1.17188 11.4677 1.17188H28.5323C29.7509 1.17188 30.7423 2.1632 30.7423 3.3818V33.4766H9.25789V9.03313C9.25789 8.70953 8.99555 8.44719 8.67195 8.44719C8.34836 8.44719 8.08602 8.70953 8.08602 9.03313V34.0625V36.6182C8.08602 38.4829 9.60305 40 11.4678 40H24.965C25.2886 40 25.5509 39.7377 25.5509 39.4141C25.5509 39.0905 25.2886 38.8281 24.965 38.8281H11.4677C10.2492 38.8281 9.25781 37.8368 9.25781 36.6182V34.6484H30.7422V36.6182C30.7422 37.8367 29.7509 38.8281 28.5323 38.8281H27.6992C27.3756 38.8281 27.1133 39.0905 27.1133 39.4141C27.1133 39.7377 27.3756 40 27.6992 40H28.5323C30.397 40 31.9141 38.483 31.9141 36.6182V34.0625V3.3818C31.9141 1.51703 30.397 0 28.5323 0V0Z" fill="white"/>
<path d="M18.2422 36.1763C17.9186 36.1763 17.6562 36.4386 17.6562 36.7622C17.6562 37.0858 17.9186 37.3481 18.2422 37.3481H21.7578C22.0814 37.3481 22.3438 37.0858 22.3438 36.7622C22.3438 36.4386 22.0814 36.1763 21.7578 36.1763H18.2422Z" fill="white"/>
<path d="M18.1641 14.1929H21.8359C22.3745 14.1929 22.8125 13.7548 22.8125 13.2163V9.54443C22.8125 9.00592 22.3745 8.56787 21.8359 8.56787H18.1641C17.6255 8.56787 17.1875 9.00592 17.1875 9.54443V13.2163C17.1875 13.7547 17.6255 14.1929 18.1641 14.1929ZM18.3594 9.73975H21.6406V13.021H18.3594V9.73975Z" fill="white"/>
<path d="M11.5203 14.1929H15.1921C15.7307 14.1929 16.1687 13.7548 16.1687 13.2163V9.54443C16.1687 9.00592 15.7307 8.56787 15.1921 8.56787H11.5203C10.9817 8.56787 10.5437 9.00592 10.5437 9.54443V13.2163C10.5437 13.7547 10.9818 14.1929 11.5203 14.1929ZM11.7156 9.73975H14.9968V13.021H11.7156V9.73975Z" fill="white"/>
<path d="M24.8079 14.1929H28.4797C29.0183 14.1929 29.4563 13.7548 29.4563 13.2163V9.54443C29.4563 9.00592 29.0183 8.56787 28.4797 8.56787H24.8079C24.2693 8.56787 23.8313 9.00592 23.8313 9.54443V13.2163C23.8313 13.7547 24.2693 14.1929 24.8079 14.1929ZM25.0032 9.73975H28.2844V13.021H25.0032V9.73975Z" fill="white"/>
<path d="M17.1875 20.5239C17.1875 21.0625 17.6255 21.5005 18.1641 21.5005H21.8359C22.3745 21.5005 22.8125 21.0625 22.8125 20.5239V16.8521C22.8125 16.3135 22.3745 15.8755 21.8359 15.8755H18.1641C17.6255 15.8755 17.1875 16.3135 17.1875 16.8521V20.5239ZM18.3594 17.0474H21.6406V20.3286H18.3594V17.0474Z" fill="white"/>
<path d="M10.5437 20.5239C10.5437 21.0625 10.9817 21.5005 11.5203 21.5005H15.1921C15.7307 21.5005 16.1687 21.0625 16.1687 20.5239V16.8521C16.1687 16.3135 15.7307 15.8755 15.1921 15.8755H11.5203C10.9817 15.8755 10.5437 16.3135 10.5437 16.8521V20.5239ZM11.7156 17.0474H14.9968V20.3286H11.7156V17.0474Z" fill="white"/>
<path d="M23.8313 20.5239C23.8313 21.0625 24.2693 21.5005 24.8079 21.5005H28.4797C29.0183 21.5005 29.4563 21.0625 29.4563 20.5239V16.8521C29.4563 16.3135 29.0183 15.8755 28.4797 15.8755H24.8079C24.2693 15.8755 23.8313 16.3135 23.8313 16.8521V20.5239ZM25.0032 17.0474H28.2844V20.3286H25.0032V17.0474Z" fill="white"/>
</g>
<defs>
<clipPath id="clip0">
<rect width="40" height="40" fill="white"/>
</clipPath>
</defs>
</svg>
