<svg width="35" height="40" viewBox="0 0 35 40" fill="none" xmlns="http://www.w3.org/2000/svg">
<path d="M31.5189 13.9316C30.9304 13.5648 30.1565 13.7442 29.7899 14.3326C29.4233 14.9209 29.6027 15.6947 30.1908 16.0614C31.5595 16.9149 32.3764 18.3873 32.3764 20.0002C32.3764 21.6131 31.5595 23.0855 30.1908 23.9391L9.60732 36.7733C8.15522 37.6787 6.39505 37.7232 4.89903 36.8931C3.4028 36.0628 2.50954 34.5455 2.50954 32.8345V7.16577C2.50954 5.45475 3.4028 3.93739 4.89903 3.10708C6.39505 2.27698 8.15522 2.32153 9.60732 3.22692L21.5897 10.6982C22.178 11.0647 22.9519 10.8854 23.3187 10.2973C23.6854 9.70919 23.5059 8.93514 22.9178 8.56851L10.9354 1.0974C8.69838 -0.297394 5.9868 -0.366621 3.68118 0.912724C1.37618 2.19186 0 4.52948 0 7.16577V32.8342C0 35.4705 1.37618 37.8082 3.68139 39.0873C4.7794 39.6965 5.96923 40 7.15655 40C8.46183 40 9.76398 39.6332 10.9354 38.9026L31.5189 26.0684C33.6275 24.7535 34.8864 22.4851 34.8864 20C34.8864 17.5149 33.6275 15.2465 31.5189 13.9316Z" fill="#CC005E"/>
</svg>
