<svg width="96" height="16" viewBox="0 0 96 16" fill="none" xmlns="http://www.w3.org/2000/svg">
<path d="M15.4829 5.63406L10.6864 4.90408L8.54222 0.352135C8.48365 0.227506 8.38731 0.126615 8.26829 0.0652895C7.96981 -0.0890138 7.6071 0.0395723 7.45786 0.352135L5.3137 4.90408L0.517213 5.63406C0.384974 5.65384 0.26407 5.71912 0.171503 5.81803C0.0595945 5.93848 -0.0020722 6.10053 5.31712e-05 6.26856C0.00217854 6.4366 0.0679221 6.59688 0.182838 6.71418L3.65316 10.2572L2.83328 15.2602C2.81405 15.3766 2.82635 15.4963 2.86878 15.6057C2.91121 15.7151 2.98207 15.8099 3.07333 15.8793C3.16459 15.9488 3.27259 15.99 3.38509 15.9984C3.4976 16.0068 3.6101 15.982 3.70983 15.9269L8.00004 13.5648L12.2902 15.9269C12.4074 15.9922 12.5434 16.0139 12.6737 15.9902C13.0024 15.9308 13.2235 15.6044 13.1668 15.2602L12.3469 10.2572L15.8172 6.71418C15.9117 6.61724 15.974 6.49064 15.9929 6.35216C16.0439 6.00597 15.8135 5.68549 15.4829 5.63406Z" fill="#F7CB5C"/>
<path d="M35.4829 5.63406L30.6864 4.90408L28.5422 0.352135C28.4837 0.227506 28.3873 0.126615 28.2683 0.0652895C27.9698 -0.0890138 27.6071 0.0395723 27.4579 0.352135L25.3137 4.90408L20.5172 5.63406C20.385 5.65384 20.2641 5.71912 20.1715 5.81803C20.0596 5.93848 19.9979 6.10053 20.0001 6.26856C20.0022 6.4366 20.0679 6.59688 20.1828 6.71418L23.6532 10.2572L22.8333 15.2602C22.8141 15.3766 22.8264 15.4963 22.8688 15.6057C22.9112 15.7151 22.9821 15.8099 23.0733 15.8793C23.1646 15.9488 23.2726 15.99 23.3851 15.9984C23.4976 16.0068 23.6101 15.982 23.7098 15.9269L28 13.5648L32.2902 15.9269C32.4074 15.9922 32.5434 16.0139 32.6737 15.9902C33.0024 15.9308 33.2235 15.6044 33.1668 15.2602L32.3469 10.2572L35.8172 6.71418C35.9117 6.61724 35.974 6.49064 35.9929 6.35216C36.0439 6.00597 35.8135 5.68549 35.4829 5.63406Z" fill="#F7CB5C"/>
<path d="M55.4829 5.63406L50.6864 4.90408L48.5422 0.352135C48.4837 0.227506 48.3873 0.126615 48.2683 0.0652895C47.9698 -0.0890138 47.6071 0.0395723 47.4579 0.352135L45.3137 4.90408L40.5172 5.63406C40.385 5.65384 40.2641 5.71912 40.1715 5.81803C40.0596 5.93848 39.9979 6.10053 40.0001 6.26856C40.0022 6.4366 40.0679 6.59688 40.1828 6.71418L43.6532 10.2572L42.8333 15.2602C42.8141 15.3766 42.8264 15.4963 42.8688 15.6057C42.9112 15.7151 42.9821 15.8099 43.0733 15.8793C43.1646 15.9488 43.2726 15.99 43.3851 15.9984C43.4976 16.0068 43.6101 15.982 43.7098 15.9269L48 13.5648L52.2902 15.9269C52.4074 15.9922 52.5434 16.0139 52.6737 15.9902C53.0024 15.9308 53.2235 15.6044 53.1668 15.2602L52.3469 10.2572L55.8172 6.71418C55.9117 6.61724 55.974 6.49064 55.9929 6.35216C56.0439 6.00597 55.8135 5.68549 55.4829 5.63406Z" fill="#F7CB5C"/>
<path d="M75.4829 5.63406L70.6864 4.90408L68.5422 0.352135C68.4837 0.227506 68.3873 0.126615 68.2683 0.0652895C67.9698 -0.0890138 67.6071 0.0395723 67.4579 0.352135L65.3137 4.90408L60.5172 5.63406C60.385 5.65384 60.2641 5.71912 60.1715 5.81803C60.0596 5.93848 59.9979 6.10053 60.0001 6.26856C60.0022 6.4366 60.0679 6.59688 60.1828 6.71418L63.6532 10.2572L62.8333 15.2602C62.8141 15.3766 62.8264 15.4963 62.8688 15.6057C62.9112 15.7151 62.9821 15.8099 63.0733 15.8793C63.1646 15.9488 63.2726 15.99 63.3851 15.9984C63.4976 16.0068 63.6101 15.982 63.7098 15.9269L68 13.5648L72.2902 15.9269C72.4074 15.9922 72.5434 16.0139 72.6737 15.9902C73.0024 15.9308 73.2235 15.6044 73.1668 15.2602L72.3469 10.2572L75.8172 6.71418C75.9117 6.61724 75.974 6.49064 75.9929 6.35216C76.0439 6.00597 75.8135 5.68549 75.4829 5.63406Z" fill="#F7CB5C"/>
<path d="M95.4829 5.63406L90.6864 4.90408L88.5422 0.352135C88.4837 0.227506 88.3873 0.126615 88.2683 0.0652895C87.9698 -0.0890138 87.6071 0.0395723 87.4579 0.352135L85.3137 4.90408L80.5172 5.63406C80.385 5.65384 80.2641 5.71912 80.1715 5.81803C80.0596 5.93848 79.9979 6.10053 80.0001 6.26856C80.0022 6.4366 80.0679 6.59688 80.1828 6.71418L83.6532 10.2572L82.8333 15.2602C82.8141 15.3766 82.8264 15.4963 82.8688 15.6057C82.9112 15.7151 82.9821 15.8099 83.0733 15.8793C83.1646 15.9488 83.2726 15.99 83.3851 15.9984C83.4976 16.0068 83.6101 15.982 83.7098 15.9269L88 13.5648L92.2902 15.9269C92.4074 15.9922 92.5434 16.0139 92.6737 15.9902C93.0024 15.9308 93.2235 15.6044 93.1668 15.2602L92.3469 10.2572L95.8172 6.71418C95.9117 6.61724 95.974 6.49064 95.9929 6.35216C96.0439 6.00597 95.8135 5.68549 95.4829 5.63406Z" fill="#F7CB5C"/>
</svg>
