<svg width="40" height="40" viewBox="0 0 40 40" fill="none" xmlns="http://www.w3.org/2000/svg">
<path d="M35.7321 7.65131H36.968C37.3991 7.65131 37.7487 7.30169 37.7487 6.87057C37.7487 6.43945 37.3991 6.08983 36.968 6.08983H34.0012C33.5701 6.08983 33.2205 6.43945 33.2205 6.87057V9.83737C33.2205 10.2685 33.5701 10.6181 34.0012 10.6181C34.4323 10.6181 34.7819 10.2685 34.7819 9.83737V8.97833C37.1509 12.1498 38.4385 15.9978 38.4385 20C38.4385 30.1671 30.1671 38.4385 20 38.4385C9.83292 38.4385 1.56148 30.1671 1.56148 20C1.56148 9.83292 9.83292 1.56148 20 1.56148C20.7519 1.56148 21.5087 1.60715 22.2495 1.69717C22.6769 1.74885 23.0667 1.44444 23.1187 1.01636C23.1708 0.588364 22.866 0.199088 22.4379 0.147091C21.6349 0.0494988 20.8147 0 20 0C14.6578 0 9.63532 2.08035 5.85787 5.85787C2.08035 9.63532 0 14.6578 0 20C0 25.3422 2.08035 30.3647 5.85787 34.1421C9.63532 37.9196 14.6578 40 20 40C25.3422 40 30.3647 37.9196 34.1421 34.1421C37.9196 30.3647 40 25.3422 40 20C40 15.4919 38.494 11.1642 35.7321 7.65131Z" fill="white"/>
<path d="M8.46871 11.7902C8.10434 11.5596 7.62207 11.6681 7.39137 12.0322C5.60902 14.8473 4.82001 18.2327 5.1697 21.565C5.52454 24.9467 7.04659 28.1357 9.45548 30.5446C12.3626 33.4517 16.1812 34.9053 20 34.9053C23.8187 34.9053 27.6373 33.4518 30.5445 30.5446C36.3587 24.7304 36.3587 15.2699 30.5445 9.45572C28.1392 7.05058 24.9555 5.52908 21.5794 5.1715C18.2533 4.819 14.8715 5.60184 12.0577 7.37544C11.6928 7.60537 11.5836 8.08748 11.8135 8.45224C12.0434 8.81708 12.5255 8.9263 12.8903 8.69645C18.1944 5.35333 24.9999 6.11947 29.4403 10.5598C34.6457 15.7653 34.6457 24.235 29.4403 29.4404C24.2349 34.6459 15.765 34.6459 10.5597 29.4404C6.18068 25.0614 5.40306 18.0915 8.71073 12.8676C8.94129 12.5033 8.833 12.0209 8.46871 11.7902Z" fill="white"/>
<path d="M30.1496 20.7934H31.1124C31.5436 20.7934 31.8932 20.4438 31.8932 20.0127C31.8932 19.5815 31.5436 19.2319 31.1124 19.2319H30.1496C29.7185 19.2319 29.3689 19.5815 29.3689 20.0127C29.3689 20.4438 29.7184 20.7934 30.1496 20.7934Z" fill="white"/>
<path d="M8.10669 19.9873C8.10669 20.4184 8.4563 20.768 8.88743 20.768H9.85023C10.2814 20.768 10.631 20.4184 10.631 19.9873C10.631 19.5562 10.2814 19.2065 9.85023 19.2065H8.88743C8.4563 19.2065 8.10669 19.5561 8.10669 19.9873Z" fill="white"/>
<path d="M20.7934 9.85047V8.88767C20.7934 8.45655 20.4438 8.10693 20.0127 8.10693C19.5815 8.10693 19.2319 8.45655 19.2319 8.88767V9.85047C19.2319 10.2816 19.5815 10.6312 20.0127 10.6312C20.4438 10.6312 20.7934 10.2816 20.7934 9.85047Z" fill="white"/>
<path d="M19.2065 30.1499V31.1127C19.2065 31.5438 19.5562 31.8934 19.9873 31.8934C20.4184 31.8934 20.768 31.5438 20.768 31.1127V30.1499C20.768 29.7188 20.4184 29.3691 19.9873 29.3691C19.5562 29.3691 19.2065 29.7187 19.2065 30.1499Z" fill="white"/>
<path d="M16.0865 14.9826C15.7816 14.6778 15.2874 14.6778 14.9823 14.9826C14.6774 15.2874 14.6774 15.7818 14.9823 16.0868L17.6283 18.7327C17.4256 19.1106 17.3102 19.5421 17.3102 20.0001C17.3102 21.4832 18.5168 22.6898 19.9999 22.6898C21.483 22.6898 22.6895 21.4832 22.6895 20.0001C22.6895 19.5421 22.5741 19.1106 22.3715 18.7327L27.7104 13.3938C28.0153 13.089 28.0153 12.5946 27.7104 12.2896C27.4054 11.9848 26.9112 11.9848 26.6062 12.2896L21.2673 17.6286C20.8894 17.4258 20.4579 17.3105 19.9999 17.3105C19.5419 17.3105 19.1104 17.4259 18.7325 17.6286L16.0865 14.9826ZM21.1281 20.0001C21.1281 20.6222 20.622 21.1283 19.9999 21.1283C19.3778 21.1283 18.8717 20.6222 18.8717 20.0001C18.8717 19.378 19.3778 18.872 19.9999 18.872C20.622 18.872 21.1281 19.378 21.1281 20.0001Z" fill="white"/>
<path d="M10.5593 10.5593C10.7053 10.4141 10.7887 10.2126 10.7887 10.0073C10.7887 9.80196 10.7053 9.60132 10.5593 9.45532C10.4141 9.31018 10.2133 9.22656 10.0073 9.22656C9.80196 9.22656 9.60053 9.3101 9.45532 9.45532C9.31018 9.60054 9.22656 9.80196 9.22656 10.0073C9.22656 10.2134 9.3101 10.4141 9.45532 10.5593C9.60053 10.7044 9.80196 10.788 10.0073 10.788C10.2133 10.788 10.4141 10.7044 10.5593 10.5593Z" fill="white"/>
<path d="M25.4082 2.33247C25.6144 2.33247 25.8158 2.24964 25.9609 2.10372C26.1062 1.9585 26.1898 1.75777 26.1898 1.55173C26.1898 1.3464 26.1062 1.14497 25.9609 0.999752C25.8158 0.854613 25.6144 0.770996 25.4082 0.770996C25.2028 0.770996 25.0014 0.854535 24.8563 0.999752C24.7111 1.14497 24.6274 1.3464 24.6274 1.55173C24.6274 1.75785 24.711 1.9585 24.8563 2.10372C25.0014 2.24964 25.2028 2.33247 25.4082 2.33247Z" fill="white"/>
</svg>
