<svg width="19" height="18" viewBox="0 0 19 18" fill="none" xmlns="http://www.w3.org/2000/svg">
<path d="M17.5058 0H0.94583C0.54758 0 0.22583 0.32175 0.22583 0.72V17.28C0.22583 17.6783 0.54758 18 0.94583 18H17.5058C17.9041 18 18.2258 17.6783 18.2258 17.28V0.72C18.2258 0.32175 17.9041 0 17.5058 0ZM14.0701 6.51825C14.0768 6.624 14.0768 6.73425 14.0768 6.84225C14.0768 10.1453 11.5613 13.95 6.96458 13.95C5.54708 13.95 4.23308 13.5383 3.12608 12.8295C3.32858 12.852 3.52208 12.861 3.72908 12.861C4.89908 12.861 5.97458 12.465 6.83183 11.7945C5.73383 11.772 4.81133 11.052 4.49633 10.062C4.88108 10.1183 5.22758 10.1183 5.62358 10.017C5.05821 9.90214 4.55005 9.59509 4.18542 9.14801C3.82078 8.70094 3.62218 8.14142 3.62333 7.5645V7.533C3.95408 7.71975 4.34333 7.8345 4.75058 7.85025C4.40823 7.62209 4.12746 7.31297 3.93318 6.95032C3.7389 6.58766 3.63711 6.18267 3.63683 5.77125C3.63683 5.3055 3.75833 4.88025 3.97658 4.51125C4.60411 5.28376 5.38717 5.91557 6.27488 6.36562C7.16258 6.81568 8.13505 7.0739 9.12908 7.1235C8.77583 5.42475 10.0448 4.05 11.5703 4.05C12.2903 4.05 12.9383 4.3515 13.3951 4.8375C13.9598 4.73175 14.4998 4.52025 14.9813 4.23675C14.7946 4.815 14.4031 5.30325 13.8833 5.6115C14.3873 5.5575 14.8733 5.418 15.3233 5.22225C14.9836 5.72175 14.5583 6.165 14.0701 6.51825V6.51825Z" fill="#CC005E"/>
</svg>
