<svg width="22" height="22" viewBox="0 0 22 22" fill="none" xmlns="http://www.w3.org/2000/svg">
<path d="M21.1205 0H0.880488C0.393738 0 0.000488281 0.39325 0.000488281 0.88V21.12C0.000488281 21.6067 0.393738 22 0.880488 22H21.1205C21.6072 22 22.0005 21.6067 22.0005 21.12V0.88C22.0005 0.39325 21.6072 0 21.1205 0ZM16.9212 7.96675C16.9295 8.096 16.9295 8.23075 16.9295 8.36275C16.9295 12.3998 13.855 17.05 8.23674 17.05C6.50424 17.05 4.89824 16.5468 3.54524 15.6805C3.79274 15.708 4.02924 15.719 4.28224 15.719C5.71224 15.719 7.02674 15.235 8.07449 14.4155C6.73249 14.388 5.60499 13.508 5.21999 12.298C5.69024 12.3668 6.11374 12.3668 6.59774 12.243C5.90674 12.1026 5.28564 11.7273 4.83998 11.1809C4.39432 10.6345 4.15158 9.95062 4.15299 9.2455V9.207C4.55724 9.43525 5.03299 9.5755 5.53074 9.59475C5.11231 9.31588 4.76915 8.93808 4.53169 8.49483C4.29424 8.05159 4.16983 7.55659 4.16949 7.05375C4.16949 6.4845 4.31799 5.96475 4.58474 5.51375C5.35172 6.45793 6.3088 7.23014 7.39377 7.78021C8.47873 8.33027 9.66731 8.64587 10.8822 8.7065C10.4505 6.63025 12.0015 4.95 13.866 4.95C14.746 4.95 15.538 5.3185 16.0962 5.9125C16.7865 5.78325 17.4465 5.52475 18.035 5.17825C17.8067 5.885 17.3282 6.48175 16.693 6.8585C17.309 6.7925 17.903 6.622 18.453 6.38275C18.0377 6.99325 17.518 7.535 16.9212 7.96675V7.96675Z" fill="#CC005E"/>
</svg>
