<svg width="22" height="22" viewBox="0 0 22 22" fill="none" xmlns="http://www.w3.org/2000/svg">
<path d="M9.1737 8.35313L13.8487 11.0098L9.1737 13.6665V8.35313ZM22.0005 2.35714V19.6429C22.0005 20.9442 20.9447 22 19.6433 22H2.35763C1.05629 22 0.000488281 20.9442 0.000488281 19.6429V2.35714C0.000488281 1.0558 1.05629 0 2.35763 0H19.6433C20.9447 0 22.0005 1.0558 22.0005 2.35714ZM19.938 11.0147C19.938 11.0147 19.938 8.08795 19.5648 6.68348C19.3585 5.90759 18.7545 5.29866 17.9835 5.09241C16.5938 4.71429 11.0005 4.71429 11.0005 4.71429C11.0005 4.71429 5.40718 4.71429 4.01745 5.09241C3.24647 5.29866 2.64245 5.90759 2.4362 6.68348C2.06299 8.08304 2.06299 11.0147 2.06299 11.0147C2.06299 11.0147 2.06299 13.9415 2.4362 15.346C2.64245 16.1219 3.24647 16.7062 4.01745 16.9125C5.40718 17.2857 11.0005 17.2857 11.0005 17.2857C11.0005 17.2857 16.5938 17.2857 17.9835 16.9076C18.7545 16.7013 19.3585 16.117 19.5648 15.3411C19.938 13.9415 19.938 11.0147 19.938 11.0147V11.0147Z" fill="#B8C2C8"/>
</svg>
